<?xml version="1.0" standalone="no"?>
<mlt LC_NUMERIC="C" version="7.24.0" title="Shotcut version 24.04.28" producer="main_bin">
  <profile description="automatic" width="720" height="1280" progressive="1" sample_aspect_num="1" sample_aspect_den="1" display_aspect_num="9" display_aspect_den="16" frame_rate_num="30" frame_rate_den="1" colorspace="709"/>
  <chain id="chain0" out="00:00:03.267">
    <property name="length">00:00:03.300</property>
    <property name="eof">pause</property>
    <property name="resource">C:/Users/Korisnik/Downloads/IMG_3471.MOV</property>
    <property name="mlt_service">avformat-novalidate</property>
    <property name="meta.media.nb_streams">2</property>
    <property name="meta.media.0.stream.type">audio</property>
    <property name="meta.media.0.codec.sample_fmt">fltp</property>
    <property name="meta.media.0.codec.sample_rate">44100</property>
    <property name="meta.media.0.codec.channels">2</property>
    <property name="meta.media.0.codec.layout">stereo</property>
    <property name="meta.media.0.codec.name">aac</property>
    <property name="meta.media.0.codec.long_name">AAC (Advanced Audio Coding)</property>
    <property name="meta.media.0.codec.bit_rate">181895</property>
    <property name="meta.attr.0.stream.creation_time.markup">2024-06-11T15:59:42.000000Z</property>
    <property name="meta.attr.0.stream.handler_name.markup">Core Media Audio</property>
    <property name="meta.attr.0.stream.vendor_id.markup">[0][0][0][0]</property>
    <property name="meta.media.1.stream.type">video</property>
    <property name="meta.media.1.stream.frame_rate">30</property>
    <property name="meta.media.1.stream.sample_aspect_ratio">0</property>
    <property name="meta.media.1.codec.width">1280</property>
    <property name="meta.media.1.codec.height">720</property>
    <property name="meta.media.1.codec.rotate">90</property>
    <property name="meta.media.1.codec.pix_fmt">yuv420p</property>
    <property name="meta.media.1.codec.sample_aspect_ratio">0</property>
    <property name="meta.media.1.codec.colorspace">709</property>
    <property name="meta.media.1.codec.color_trc">1</property>
    <property name="meta.media.1.codec.name">h264</property>
    <property name="meta.media.1.codec.long_name">H.264 / AVC / MPEG-4 AVC / MPEG-4 part 10</property>
    <property name="meta.media.1.codec.bit_rate">2503684</property>
    <property name="meta.attr.1.stream.creation_time.markup">2024-06-11T15:59:42.000000Z</property>
    <property name="meta.attr.1.stream.handler_name.markup">Core Media Video</property>
    <property name="meta.attr.1.stream.vendor_id.markup">[0][0][0][0]</property>
    <property name="meta.attr.major_brand.markup">mp42</property>
    <property name="meta.attr.minor_version.markup">1</property>
    <property name="meta.attr.compatible_brands.markup">isommp41mp42</property>
    <property name="meta.attr.creation_time.markup">2024-06-11T15:59:42.000000Z</property>
    <property name="seekable">1</property>
    <property name="meta.media.sample_aspect_num">1</property>
    <property name="meta.media.sample_aspect_den">1</property>
    <property name="audio_index">0</property>
    <property name="video_index">1</property>
    <property name="creation_time">2024-06-11T15:59:42</property>
    <property name="vstream">0</property>
    <property name="meta.media.frame_rate_num">30</property>
    <property name="meta.media.frame_rate_den">1</property>
    <property name="meta.media.colorspace">709</property>
    <property name="meta.media.color_trc">1</property>
    <property name="meta.media.has_b_frames">1</property>
    <property name="meta.media.width">720</property>
    <property name="meta.media.height">1280</property>
    <property name="meta.media.color_range">mpeg</property>
    <property name="astream">0</property>
    <property name="shotcut:skipConvert">1</property>
    <property name="xml">was here</property>
    <property name="shotcut:hash">63b306b4895e30b1d0047ed0f98e96b1</property>
    <property name="meta.media.top_field_first">0</property>
    <property name="meta.media.progressive">1</property>
    <property name="ignore_points">1</property>
    <property name="shotcut:caption">IMG_3471.MOV</property>
  </chain>
  <chain id="chain1" out="00:00:05.300">
    <property name="length">00:00:05.333</property>
    <property name="eof">pause</property>
    <property name="resource">C:/Users/Korisnik/Downloads/IMG_3469.MOV</property>
    <property name="mlt_service">avformat-novalidate</property>
    <property name="meta.media.nb_streams">2</property>
    <property name="meta.media.0.stream.type">audio</property>
    <property name="meta.media.0.codec.sample_fmt">fltp</property>
    <property name="meta.media.0.codec.sample_rate">44100</property>
    <property name="meta.media.0.codec.channels">2</property>
    <property name="meta.media.0.codec.layout">stereo</property>
    <property name="meta.media.0.codec.name">aac</property>
    <property name="meta.media.0.codec.long_name">AAC (Advanced Audio Coding)</property>
    <property name="meta.media.0.codec.bit_rate">202550</property>
    <property name="meta.attr.0.stream.creation_time.markup">2024-06-11T15:59:38.000000Z</property>
    <property name="meta.attr.0.stream.handler_name.markup">Core Media Audio</property>
    <property name="meta.attr.0.stream.vendor_id.markup">[0][0][0][0]</property>
    <property name="meta.media.1.stream.type">video</property>
    <property name="meta.media.1.stream.frame_rate">30</property>
    <property name="meta.media.1.stream.sample_aspect_ratio">0</property>
    <property name="meta.media.1.codec.width">1280</property>
    <property name="meta.media.1.codec.height">720</property>
    <property name="meta.media.1.codec.rotate">90</property>
    <property name="meta.media.1.codec.pix_fmt">yuv420p</property>
    <property name="meta.media.1.codec.sample_aspect_ratio">0</property>
    <property name="meta.media.1.codec.colorspace">709</property>
    <property name="meta.media.1.codec.color_trc">1</property>
    <property name="meta.media.1.codec.name">h264</property>
    <property name="meta.media.1.codec.long_name">H.264 / AVC / MPEG-4 AVC / MPEG-4 part 10</property>
    <property name="meta.media.1.codec.bit_rate">2552349</property>
    <property name="meta.attr.1.stream.creation_time.markup">2024-06-11T15:59:38.000000Z</property>
    <property name="meta.attr.1.stream.handler_name.markup">Core Media Video</property>
    <property name="meta.attr.1.stream.vendor_id.markup">[0][0][0][0]</property>
    <property name="meta.attr.major_brand.markup">mp42</property>
    <property name="meta.attr.minor_version.markup">1</property>
    <property name="meta.attr.compatible_brands.markup">isommp41mp42</property>
    <property name="meta.attr.creation_time.markup">2024-06-11T15:59:38.000000Z</property>
    <property name="seekable">1</property>
    <property name="meta.media.sample_aspect_num">1</property>
    <property name="meta.media.sample_aspect_den">1</property>
    <property name="audio_index">0</property>
    <property name="video_index">1</property>
    <property name="creation_time">2024-06-11T15:59:38</property>
    <property name="vstream">0</property>
    <property name="meta.media.frame_rate_num">30</property>
    <property name="meta.media.frame_rate_den">1</property>
    <property name="meta.media.colorspace">709</property>
    <property name="meta.media.color_trc">1</property>
    <property name="meta.media.has_b_frames">1</property>
    <property name="meta.media.width">720</property>
    <property name="meta.media.height">1280</property>
    <property name="meta.media.color_range">mpeg</property>
    <property name="astream">0</property>
    <property name="shotcut:skipConvert">1</property>
    <property name="xml">was here</property>
    <property name="shotcut:hash">435ae51d33a227a6f0e03c226ade19fc</property>
    <property name="meta.media.top_field_first">0</property>
    <property name="meta.media.progressive">1</property>
    <property name="ignore_points">1</property>
    <property name="shotcut:caption">IMG_3469.MOV</property>
  </chain>
  <chain id="chain2" in="00:00:00.400" out="00:00:07.633">
    <property name="length">00:00:07.667</property>
    <property name="eof">pause</property>
    <property name="resource">C:/Users/Korisnik/Downloads/IMG_3467.MOV</property>
    <property name="mlt_service">avformat-novalidate</property>
    <property name="meta.media.nb_streams">2</property>
    <property name="meta.media.0.stream.type">audio</property>
    <property name="meta.media.0.codec.sample_fmt">fltp</property>
    <property name="meta.media.0.codec.sample_rate">44100</property>
    <property name="meta.media.0.codec.channels">2</property>
    <property name="meta.media.0.codec.layout">stereo</property>
    <property name="meta.media.0.codec.name">aac</property>
    <property name="meta.media.0.codec.long_name">AAC (Advanced Audio Coding)</property>
    <property name="meta.media.0.codec.bit_rate">200220</property>
    <property name="meta.attr.0.stream.creation_time.markup">2024-06-11T15:59:26.000000Z</property>
    <property name="meta.attr.0.stream.handler_name.markup">Core Media Audio</property>
    <property name="meta.attr.0.stream.vendor_id.markup">[0][0][0][0]</property>
    <property name="meta.media.1.stream.type">video</property>
    <property name="meta.media.1.stream.frame_rate">30</property>
    <property name="meta.media.1.stream.sample_aspect_ratio">0</property>
    <property name="meta.media.1.codec.width">1280</property>
    <property name="meta.media.1.codec.height">720</property>
    <property name="meta.media.1.codec.rotate">90</property>
    <property name="meta.media.1.codec.pix_fmt">yuv420p</property>
    <property name="meta.media.1.codec.sample_aspect_ratio">0</property>
    <property name="meta.media.1.codec.colorspace">709</property>
    <property name="meta.media.1.codec.color_trc">1</property>
    <property name="meta.media.1.codec.name">h264</property>
    <property name="meta.media.1.codec.long_name">H.264 / AVC / MPEG-4 AVC / MPEG-4 part 10</property>
    <property name="meta.media.1.codec.bit_rate">2514441</property>
    <property name="meta.attr.1.stream.creation_time.markup">2024-06-11T15:59:26.000000Z</property>
    <property name="meta.attr.1.stream.handler_name.markup">Core Media Video</property>
    <property name="meta.attr.1.stream.vendor_id.markup">[0][0][0][0]</property>
    <property name="meta.attr.major_brand.markup">mp42</property>
    <property name="meta.attr.minor_version.markup">1</property>
    <property name="meta.attr.compatible_brands.markup">isommp41mp42</property>
    <property name="meta.attr.creation_time.markup">2024-06-11T15:59:26.000000Z</property>
    <property name="seekable">1</property>
    <property name="meta.media.sample_aspect_num">1</property>
    <property name="meta.media.sample_aspect_den">1</property>
    <property name="audio_index">0</property>
    <property name="video_index">1</property>
    <property name="creation_time">2024-06-11T15:59:26</property>
    <property name="vstream">0</property>
    <property name="meta.media.frame_rate_num">30</property>
    <property name="meta.media.frame_rate_den">1</property>
    <property name="meta.media.colorspace">709</property>
    <property name="meta.media.color_trc">1</property>
    <property name="meta.media.has_b_frames">1</property>
    <property name="meta.media.width">720</property>
    <property name="meta.media.height">1280</property>
    <property name="meta.media.color_range">mpeg</property>
    <property name="astream">0</property>
    <property name="shotcut:skipConvert">1</property>
    <property name="xml">was here</property>
    <property name="shotcut:hash">77f4e536fec0629e56b904c879944237</property>
    <property name="meta.media.top_field_first">0</property>
    <property name="meta.media.progressive">1</property>
    <property name="ignore_points">1</property>
    <property name="shotcut:caption">IMG_3467.MOV</property>
  </chain>
  <chain id="chain3" out="00:00:04.100">
    <property name="length">00:00:04.133</property>
    <property name="eof">pause</property>
    <property name="resource">C:/Users/Korisnik/Downloads/IMG_3466.MOV</property>
    <property name="mlt_service">avformat-novalidate</property>
    <property name="meta.media.nb_streams">2</property>
    <property name="meta.media.0.stream.type">audio</property>
    <property name="meta.media.0.codec.sample_fmt">fltp</property>
    <property name="meta.media.0.codec.sample_rate">44100</property>
    <property name="meta.media.0.codec.channels">2</property>
    <property name="meta.media.0.codec.layout">stereo</property>
    <property name="meta.media.0.codec.name">aac</property>
    <property name="meta.media.0.codec.long_name">AAC (Advanced Audio Coding)</property>
    <property name="meta.media.0.codec.bit_rate">196746</property>
    <property name="meta.attr.0.stream.creation_time.markup">2024-06-11T15:59:20.000000Z</property>
    <property name="meta.attr.0.stream.handler_name.markup">Core Media Audio</property>
    <property name="meta.attr.0.stream.vendor_id.markup">[0][0][0][0]</property>
    <property name="meta.media.1.stream.type">video</property>
    <property name="meta.media.1.stream.frame_rate">30.0121</property>
    <property name="meta.media.1.stream.sample_aspect_ratio">0</property>
    <property name="meta.media.1.codec.width">1280</property>
    <property name="meta.media.1.codec.height">720</property>
    <property name="meta.media.1.codec.rotate">90</property>
    <property name="meta.media.1.codec.pix_fmt">yuv420p</property>
    <property name="meta.media.1.codec.sample_aspect_ratio">0</property>
    <property name="meta.media.1.codec.colorspace">709</property>
    <property name="meta.media.1.codec.color_trc">1</property>
    <property name="meta.media.1.codec.name">h264</property>
    <property name="meta.media.1.codec.long_name">H.264 / AVC / MPEG-4 AVC / MPEG-4 part 10</property>
    <property name="meta.media.1.codec.bit_rate">2609587</property>
    <property name="meta.attr.1.stream.creation_time.markup">2024-06-11T15:59:20.000000Z</property>
    <property name="meta.attr.1.stream.handler_name.markup">Core Media Video</property>
    <property name="meta.attr.1.stream.vendor_id.markup">[0][0][0][0]</property>
    <property name="meta.attr.major_brand.markup">mp42</property>
    <property name="meta.attr.minor_version.markup">1</property>
    <property name="meta.attr.compatible_brands.markup">isommp41mp42</property>
    <property name="meta.attr.creation_time.markup">2024-06-11T15:59:20.000000Z</property>
    <property name="seekable">1</property>
    <property name="meta.media.sample_aspect_num">1</property>
    <property name="meta.media.sample_aspect_den">1</property>
    <property name="audio_index">0</property>
    <property name="video_index">1</property>
    <property name="creation_time">2024-06-11T15:59:20</property>
    <property name="vstream">0</property>
    <property name="meta.media.frame_rate_num">74400</property>
    <property name="meta.media.frame_rate_den">2479</property>
    <property name="meta.media.colorspace">709</property>
    <property name="meta.media.color_trc">1</property>
    <property name="meta.media.has_b_frames">1</property>
    <property name="meta.media.width">720</property>
    <property name="meta.media.height">1280</property>
    <property name="meta.media.color_range">mpeg</property>
    <property name="astream">0</property>
    <property name="shotcut:skipConvert">1</property>
    <property name="xml">was here</property>
    <property name="shotcut:hash">e61326b9e0fd0d3e0d46d873f36dc5f3</property>
    <property name="meta.media.top_field_first">0</property>
    <property name="meta.media.progressive">1</property>
    <property name="ignore_points">1</property>
    <property name="shotcut:caption">IMG_3466.MOV</property>
  </chain>
  <chain id="chain4" out="00:00:02.200">
    <property name="length">00:00:02.233</property>
    <property name="eof">pause</property>
    <property name="resource">C:/Users/Korisnik/Downloads/IMG_3464.MOV</property>
    <property name="mlt_service">avformat-novalidate</property>
    <property name="meta.media.nb_streams">2</property>
    <property name="meta.media.0.stream.type">audio</property>
    <property name="meta.media.0.codec.sample_fmt">fltp</property>
    <property name="meta.media.0.codec.sample_rate">44100</property>
    <property name="meta.media.0.codec.channels">2</property>
    <property name="meta.media.0.codec.layout">stereo</property>
    <property name="meta.media.0.codec.name">aac</property>
    <property name="meta.media.0.codec.long_name">AAC (Advanced Audio Coding)</property>
    <property name="meta.media.0.codec.bit_rate">162444</property>
    <property name="meta.attr.0.stream.creation_time.markup">2024-06-11T15:59:17.000000Z</property>
    <property name="meta.attr.0.stream.handler_name.markup">Core Media Audio</property>
    <property name="meta.attr.0.stream.vendor_id.markup">[0][0][0][0]</property>
    <property name="meta.media.1.stream.type">video</property>
    <property name="meta.media.1.stream.frame_rate">30</property>
    <property name="meta.media.1.stream.sample_aspect_ratio">0</property>
    <property name="meta.media.1.codec.width">1280</property>
    <property name="meta.media.1.codec.height">720</property>
    <property name="meta.media.1.codec.rotate">90</property>
    <property name="meta.media.1.codec.pix_fmt">yuv420p</property>
    <property name="meta.media.1.codec.sample_aspect_ratio">0</property>
    <property name="meta.media.1.codec.colorspace">709</property>
    <property name="meta.media.1.codec.color_trc">1</property>
    <property name="meta.media.1.codec.name">h264</property>
    <property name="meta.media.1.codec.long_name">H.264 / AVC / MPEG-4 AVC / MPEG-4 part 10</property>
    <property name="meta.media.1.codec.bit_rate">2697116</property>
    <property name="meta.attr.1.stream.creation_time.markup">2024-06-11T15:59:17.000000Z</property>
    <property name="meta.attr.1.stream.handler_name.markup">Core Media Video</property>
    <property name="meta.attr.1.stream.vendor_id.markup">[0][0][0][0]</property>
    <property name="meta.attr.major_brand.markup">mp42</property>
    <property name="meta.attr.minor_version.markup">1</property>
    <property name="meta.attr.compatible_brands.markup">isommp41mp42</property>
    <property name="meta.attr.creation_time.markup">2024-06-11T15:59:17.000000Z</property>
    <property name="seekable">1</property>
    <property name="meta.media.sample_aspect_num">1</property>
    <property name="meta.media.sample_aspect_den">1</property>
    <property name="audio_index">0</property>
    <property name="video_index">1</property>
    <property name="creation_time">2024-06-11T15:59:17</property>
    <property name="vstream">0</property>
    <property name="meta.media.frame_rate_num">30</property>
    <property name="meta.media.frame_rate_den">1</property>
    <property name="meta.media.colorspace">709</property>
    <property name="meta.media.color_trc">1</property>
    <property name="meta.media.has_b_frames">1</property>
    <property name="meta.media.width">720</property>
    <property name="meta.media.height">1280</property>
    <property name="meta.media.color_range">mpeg</property>
    <property name="astream">0</property>
    <property name="shotcut:skipConvert">1</property>
    <property name="xml">was here</property>
    <property name="shotcut:hash">30d9fadde49d66815c2a181b609d92c0</property>
    <property name="meta.media.top_field_first">0</property>
    <property name="meta.media.progressive">1</property>
    <property name="ignore_points">1</property>
    <property name="shotcut:caption">IMG_3464.MOV</property>
  </chain>
  <chain id="chain5" out="00:00:02.900">
    <property name="length">00:00:02.933</property>
    <property name="eof">pause</property>
    <property name="resource">C:/Users/Korisnik/Downloads/IMG_3463.MOV</property>
    <property name="mlt_service">avformat-novalidate</property>
    <property name="meta.media.nb_streams">2</property>
    <property name="meta.media.0.stream.type">audio</property>
    <property name="meta.media.0.codec.sample_fmt">fltp</property>
    <property name="meta.media.0.codec.sample_rate">44100</property>
    <property name="meta.media.0.codec.channels">2</property>
    <property name="meta.media.0.codec.layout">stereo</property>
    <property name="meta.media.0.codec.name">aac</property>
    <property name="meta.media.0.codec.long_name">AAC (Advanced Audio Coding)</property>
    <property name="meta.media.0.codec.bit_rate">169028</property>
    <property name="meta.attr.0.stream.creation_time.markup">2024-06-11T15:59:13.000000Z</property>
    <property name="meta.attr.0.stream.handler_name.markup">Core Media Audio</property>
    <property name="meta.attr.0.stream.vendor_id.markup">[0][0][0][0]</property>
    <property name="meta.media.1.stream.type">video</property>
    <property name="meta.media.1.stream.frame_rate">30.0171</property>
    <property name="meta.media.1.stream.sample_aspect_ratio">0</property>
    <property name="meta.media.1.codec.width">1280</property>
    <property name="meta.media.1.codec.height">720</property>
    <property name="meta.media.1.codec.rotate">90</property>
    <property name="meta.media.1.codec.pix_fmt">yuv420p</property>
    <property name="meta.media.1.codec.sample_aspect_ratio">0</property>
    <property name="meta.media.1.codec.colorspace">709</property>
    <property name="meta.media.1.codec.color_trc">1</property>
    <property name="meta.media.1.codec.name">h264</property>
    <property name="meta.media.1.codec.long_name">H.264 / AVC / MPEG-4 AVC / MPEG-4 part 10</property>
    <property name="meta.media.1.codec.bit_rate">2486541</property>
    <property name="meta.attr.1.stream.creation_time.markup">2024-06-11T15:59:13.000000Z</property>
    <property name="meta.attr.1.stream.handler_name.markup">Core Media Video</property>
    <property name="meta.attr.1.stream.vendor_id.markup">[0][0][0][0]</property>
    <property name="meta.attr.major_brand.markup">mp42</property>
    <property name="meta.attr.minor_version.markup">1</property>
    <property name="meta.attr.compatible_brands.markup">isommp41mp42</property>
    <property name="meta.attr.creation_time.markup">2024-06-11T15:59:13.000000Z</property>
    <property name="seekable">1</property>
    <property name="meta.media.sample_aspect_num">1</property>
    <property name="meta.media.sample_aspect_den">1</property>
    <property name="audio_index">0</property>
    <property name="video_index">1</property>
    <property name="creation_time">2024-06-11T15:59:13</property>
    <property name="vstream">0</property>
    <property name="meta.media.frame_rate_num">52800</property>
    <property name="meta.media.frame_rate_den">1759</property>
    <property name="meta.media.colorspace">709</property>
    <property name="meta.media.color_trc">1</property>
    <property name="meta.media.has_b_frames">1</property>
    <property name="meta.media.width">720</property>
    <property name="meta.media.height">1280</property>
    <property name="meta.media.color_range">mpeg</property>
    <property name="astream">0</property>
    <property name="shotcut:skipConvert">1</property>
    <property name="xml">was here</property>
    <property name="shotcut:hash">7547c616329bea40379ec1410dfbbe62</property>
    <property name="meta.media.top_field_first">0</property>
    <property name="meta.media.progressive">1</property>
    <property name="ignore_points">1</property>
    <property name="shotcut:caption">IMG_3463.MOV</property>
  </chain>
  <chain id="chain6" out="00:00:04.733">
    <property name="length">00:00:04.767</property>
    <property name="eof">pause</property>
    <property name="resource">C:/Users/Korisnik/Downloads/IMG_3461.MOV</property>
    <property name="mlt_service">avformat-novalidate</property>
    <property name="meta.media.nb_streams">2</property>
    <property name="meta.media.0.stream.type">audio</property>
    <property name="meta.media.0.codec.sample_fmt">fltp</property>
    <property name="meta.media.0.codec.sample_rate">44100</property>
    <property name="meta.media.0.codec.channels">2</property>
    <property name="meta.media.0.codec.layout">stereo</property>
    <property name="meta.media.0.codec.name">aac</property>
    <property name="meta.media.0.codec.long_name">AAC (Advanced Audio Coding)</property>
    <property name="meta.media.0.codec.bit_rate">160486</property>
    <property name="meta.attr.0.stream.creation_time.markup">2024-06-11T15:59:08.000000Z</property>
    <property name="meta.attr.0.stream.handler_name.markup">Core Media Audio</property>
    <property name="meta.attr.0.stream.vendor_id.markup">[0][0][0][0]</property>
    <property name="meta.media.1.stream.type">video</property>
    <property name="meta.media.1.stream.frame_rate">30</property>
    <property name="meta.media.1.stream.sample_aspect_ratio">0</property>
    <property name="meta.media.1.codec.width">1280</property>
    <property name="meta.media.1.codec.height">720</property>
    <property name="meta.media.1.codec.rotate">90</property>
    <property name="meta.media.1.codec.pix_fmt">yuv420p</property>
    <property name="meta.media.1.codec.sample_aspect_ratio">0</property>
    <property name="meta.media.1.codec.colorspace">709</property>
    <property name="meta.media.1.codec.color_trc">1</property>
    <property name="meta.media.1.codec.name">h264</property>
    <property name="meta.media.1.codec.long_name">H.264 / AVC / MPEG-4 AVC / MPEG-4 part 10</property>
    <property name="meta.media.1.codec.bit_rate">2464632</property>
    <property name="meta.attr.1.stream.creation_time.markup">2024-06-11T15:59:08.000000Z</property>
    <property name="meta.attr.1.stream.handler_name.markup">Core Media Video</property>
    <property name="meta.attr.1.stream.vendor_id.markup">[0][0][0][0]</property>
    <property name="meta.attr.major_brand.markup">mp42</property>
    <property name="meta.attr.minor_version.markup">1</property>
    <property name="meta.attr.compatible_brands.markup">isommp41mp42</property>
    <property name="meta.attr.creation_time.markup">2024-06-11T15:59:08.000000Z</property>
    <property name="seekable">1</property>
    <property name="meta.media.sample_aspect_num">1</property>
    <property name="meta.media.sample_aspect_den">1</property>
    <property name="audio_index">0</property>
    <property name="video_index">1</property>
    <property name="creation_time">2024-06-11T15:59:08</property>
    <property name="vstream">0</property>
    <property name="meta.media.frame_rate_num">30</property>
    <property name="meta.media.frame_rate_den">1</property>
    <property name="meta.media.colorspace">709</property>
    <property name="meta.media.color_trc">1</property>
    <property name="meta.media.has_b_frames">1</property>
    <property name="meta.media.width">720</property>
    <property name="meta.media.height">1280</property>
    <property name="meta.media.color_range">mpeg</property>
    <property name="astream">0</property>
    <property name="shotcut:skipConvert">1</property>
    <property name="xml">was here</property>
    <property name="shotcut:hash">9ba284673e430c347d1d258a297f6893</property>
    <property name="meta.media.top_field_first">0</property>
    <property name="meta.media.progressive">1</property>
    <property name="ignore_points">1</property>
    <property name="shotcut:caption">IMG_3461.MOV</property>
  </chain>
  <chain id="chain7" out="00:00:34.367">
    <property name="length">00:05:22.900</property>
    <property name="eof">pause</property>
    <property name="resource">zvuk.mp3</property>
    <property name="mlt_service">avformat-novalidate</property>
    <property name="meta.media.nb_streams">1</property>
    <property name="meta.media.0.stream.type">audio</property>
    <property name="meta.media.0.codec.sample_fmt">fltp</property>
    <property name="meta.media.0.codec.sample_rate">48000</property>
    <property name="meta.media.0.codec.channels">2</property>
    <property name="meta.media.0.codec.layout">stereo</property>
    <property name="meta.media.0.codec.name">mp3float</property>
    <property name="meta.media.0.codec.long_name">MP3 (MPEG audio layer 3)</property>
    <property name="meta.media.0.codec.bit_rate">192000</property>
    <property name="meta.attr.0.stream.encoder.markup">Lavc58.54</property>
    <property name="meta.attr.encoder.markup">Lavf58.29.100</property>
    <property name="seekable">1</property>
    <property name="audio_index">0</property>
    <property name="video_index">-1</property>
    <property name="creation_time">2024-06-11T20:08:26</property>
    <property name="astream">0</property>
    <property name="shotcut:skipConvert">1</property>
    <property name="xml">was here</property>
    <property name="shotcut:hash">c6b794d5aec9a637b16a94753746a1a5</property>
    <property name="ignore_points">1</property>
    <property name="shotcut:caption">zvuk.mp3</property>
  </chain>
  <playlist id="main_bin" title="Shotcut version 24.04.28">
    <property name="shotcut:projectAudioChannels">2</property>
    <property name="shotcut:projectFolder">0</property>
    <property name="xml_retain">1</property>
    <entry producer="chain0" in="00:00:00.000" out="00:00:03.267"/>
    <entry producer="chain1" in="00:00:00.000" out="00:00:05.300"/>
    <entry producer="chain2" in="00:00:00.400" out="00:00:07.633"/>
    <entry producer="chain3" in="00:00:00.000" out="00:00:04.100"/>
    <entry producer="chain4" in="00:00:00.000" out="00:00:02.200"/>
    <entry producer="chain5" in="00:00:00.000" out="00:00:02.900"/>
    <entry producer="chain6" in="00:00:00.000" out="00:00:04.733"/>
    <entry producer="chain7" in="00:00:00.000" out="00:00:34.367"/>
  </playlist>
  <producer id="black" in="00:00:00.000" out="00:00:28.367">
    <property name="length">00:00:28.400</property>
    <property name="eof">pause</property>
    <property name="resource">0</property>
    <property name="aspect_ratio">1</property>
    <property name="mlt_service">color</property>
    <property name="mlt_image_format">rgba</property>
    <property name="set.test_audio">0</property>
  </producer>
  <playlist id="background">
    <entry producer="black" in="00:00:00.000" out="00:00:28.367"/>
  </playlist>
  <chain id="chain8" out="00:00:04.733">
    <property name="length">00:00:04.767</property>
    <property name="eof">pause</property>
    <property name="resource">C:/Users/Korisnik/Downloads/IMG_3461.MOV</property>
    <property name="mlt_service">avformat-novalidate</property>
    <property name="meta.media.nb_streams">2</property>
    <property name="meta.media.0.stream.type">audio</property>
    <property name="meta.media.0.codec.sample_fmt">fltp</property>
    <property name="meta.media.0.codec.sample_rate">44100</property>
    <property name="meta.media.0.codec.channels">2</property>
    <property name="meta.media.0.codec.layout">stereo</property>
    <property name="meta.media.0.codec.name">aac</property>
    <property name="meta.media.0.codec.long_name">AAC (Advanced Audio Coding)</property>
    <property name="meta.media.0.codec.bit_rate">160486</property>
    <property name="meta.attr.0.stream.creation_time.markup">2024-06-11T15:59:08.000000Z</property>
    <property name="meta.attr.0.stream.handler_name.markup">Core Media Audio</property>
    <property name="meta.attr.0.stream.vendor_id.markup">[0][0][0][0]</property>
    <property name="meta.media.1.stream.type">video</property>
    <property name="meta.media.1.stream.frame_rate">30</property>
    <property name="meta.media.1.stream.sample_aspect_ratio">0</property>
    <property name="meta.media.1.codec.width">1280</property>
    <property name="meta.media.1.codec.height">720</property>
    <property name="meta.media.1.codec.rotate">90</property>
    <property name="meta.media.1.codec.pix_fmt">yuv420p</property>
    <property name="meta.media.1.codec.sample_aspect_ratio">0</property>
    <property name="meta.media.1.codec.colorspace">709</property>
    <property name="meta.media.1.codec.color_trc">1</property>
    <property name="meta.media.1.codec.name">h264</property>
    <property name="meta.media.1.codec.long_name">H.264 / AVC / MPEG-4 AVC / MPEG-4 part 10</property>
    <property name="meta.media.1.codec.bit_rate">2464632</property>
    <property name="meta.attr.1.stream.creation_time.markup">2024-06-11T15:59:08.000000Z</property>
    <property name="meta.attr.1.stream.handler_name.markup">Core Media Video</property>
    <property name="meta.attr.1.stream.vendor_id.markup">[0][0][0][0]</property>
    <property name="meta.attr.major_brand.markup">mp42</property>
    <property name="meta.attr.minor_version.markup">1</property>
    <property name="meta.attr.compatible_brands.markup">isommp41mp42</property>
    <property name="meta.attr.creation_time.markup">2024-06-11T15:59:08.000000Z</property>
    <property name="seekable">1</property>
    <property name="meta.media.sample_aspect_num">1</property>
    <property name="meta.media.sample_aspect_den">1</property>
    <property name="audio_index">-1</property>
    <property name="video_index">1</property>
    <property name="creation_time">2024-06-11T15:59:08</property>
    <property name="vstream">0</property>
    <property name="meta.media.frame_rate_num">30</property>
    <property name="meta.media.frame_rate_den">1</property>
    <property name="meta.media.colorspace">709</property>
    <property name="meta.media.color_trc">1</property>
    <property name="meta.media.has_b_frames">1</property>
    <property name="meta.media.width">720</property>
    <property name="meta.media.height">1280</property>
    <property name="meta.media.color_range">mpeg</property>
    <property name="astream">-1</property>
    <property name="shotcut:skipConvert">1</property>
    <property name="xml">was here</property>
    <property name="shotcut:hash">9ba284673e430c347d1d258a297f6893</property>
    <property name="meta.media.top_field_first">0</property>
    <property name="meta.media.progressive">1</property>
    <property name="ignore_points">0</property>
    <property name="shotcut:caption">IMG_3461.MOV</property>
    <property name="shotcut:defaultAudioIndex">0</property>
    <filter id="filter1" out="00:00:05.800">
      <property name="start">1</property>
      <property name="level">1</property>
      <property name="mlt_service">brightness</property>
      <property name="shotcut:filter">brightnessOpacity</property>
      <property name="alpha">00:00:00.000=0;00:00:00.033=0;00:00:00.300=1</property>
      <property name="opacity">00:00:00.000=0;00:00:00.033=0;00:00:00.300=1</property>
    </filter>
  </chain>
  <chain id="chain9" out="00:00:02.900">
    <property name="length">00:00:02.933</property>
    <property name="eof">pause</property>
    <property name="resource">C:/Users/Korisnik/Downloads/IMG_3463.MOV</property>
    <property name="mlt_service">avformat-novalidate</property>
    <property name="meta.media.nb_streams">2</property>
    <property name="meta.media.0.stream.type">audio</property>
    <property name="meta.media.0.codec.sample_fmt">fltp</property>
    <property name="meta.media.0.codec.sample_rate">44100</property>
    <property name="meta.media.0.codec.channels">2</property>
    <property name="meta.media.0.codec.layout">stereo</property>
    <property name="meta.media.0.codec.name">aac</property>
    <property name="meta.media.0.codec.long_name">AAC (Advanced Audio Coding)</property>
    <property name="meta.media.0.codec.bit_rate">169028</property>
    <property name="meta.attr.0.stream.creation_time.markup">2024-06-11T15:59:13.000000Z</property>
    <property name="meta.attr.0.stream.handler_name.markup">Core Media Audio</property>
    <property name="meta.attr.0.stream.vendor_id.markup">[0][0][0][0]</property>
    <property name="meta.media.1.stream.type">video</property>
    <property name="meta.media.1.stream.frame_rate">30.0171</property>
    <property name="meta.media.1.stream.sample_aspect_ratio">0</property>
    <property name="meta.media.1.codec.width">1280</property>
    <property name="meta.media.1.codec.height">720</property>
    <property name="meta.media.1.codec.rotate">90</property>
    <property name="meta.media.1.codec.pix_fmt">yuv420p</property>
    <property name="meta.media.1.codec.sample_aspect_ratio">0</property>
    <property name="meta.media.1.codec.colorspace">709</property>
    <property name="meta.media.1.codec.color_trc">1</property>
    <property name="meta.media.1.codec.name">h264</property>
    <property name="meta.media.1.codec.long_name">H.264 / AVC / MPEG-4 AVC / MPEG-4 part 10</property>
    <property name="meta.media.1.codec.bit_rate">2486541</property>
    <property name="meta.attr.1.stream.creation_time.markup">2024-06-11T15:59:13.000000Z</property>
    <property name="meta.attr.1.stream.handler_name.markup">Core Media Video</property>
    <property name="meta.attr.1.stream.vendor_id.markup">[0][0][0][0]</property>
    <property name="meta.attr.major_brand.markup">mp42</property>
    <property name="meta.attr.minor_version.markup">1</property>
    <property name="meta.attr.compatible_brands.markup">isommp41mp42</property>
    <property name="meta.attr.creation_time.markup">2024-06-11T15:59:13.000000Z</property>
    <property name="seekable">1</property>
    <property name="meta.media.sample_aspect_num">1</property>
    <property name="meta.media.sample_aspect_den">1</property>
    <property name="audio_index">-1</property>
    <property name="video_index">1</property>
    <property name="creation_time">2024-06-11T15:59:13</property>
    <property name="vstream">0</property>
    <property name="meta.media.frame_rate_num">52800</property>
    <property name="meta.media.frame_rate_den">1759</property>
    <property name="meta.media.colorspace">709</property>
    <property name="meta.media.color_trc">1</property>
    <property name="meta.media.has_b_frames">1</property>
    <property name="meta.media.width">720</property>
    <property name="meta.media.height">1280</property>
    <property name="meta.media.color_range">mpeg</property>
    <property name="astream">-1</property>
    <property name="shotcut:skipConvert">1</property>
    <property name="xml">was here</property>
    <property name="shotcut:hash">7547c616329bea40379ec1410dfbbe62</property>
    <property name="meta.media.top_field_first">0</property>
    <property name="meta.media.progressive">1</property>
    <property name="ignore_points">0</property>
    <property name="shotcut:caption">IMG_3463.MOV</property>
    <property name="shotcut:defaultAudioIndex">0</property>
  </chain>
  <chain id="chain10" out="00:00:02.200">
    <property name="length">00:00:02.233</property>
    <property name="eof">pause</property>
    <property name="resource">C:/Users/Korisnik/Downloads/IMG_3464.MOV</property>
    <property name="mlt_service">avformat-novalidate</property>
    <property name="meta.media.nb_streams">2</property>
    <property name="meta.media.0.stream.type">audio</property>
    <property name="meta.media.0.codec.sample_fmt">fltp</property>
    <property name="meta.media.0.codec.sample_rate">44100</property>
    <property name="meta.media.0.codec.channels">2</property>
    <property name="meta.media.0.codec.layout">stereo</property>
    <property name="meta.media.0.codec.name">aac</property>
    <property name="meta.media.0.codec.long_name">AAC (Advanced Audio Coding)</property>
    <property name="meta.media.0.codec.bit_rate">162444</property>
    <property name="meta.attr.0.stream.creation_time.markup">2024-06-11T15:59:17.000000Z</property>
    <property name="meta.attr.0.stream.handler_name.markup">Core Media Audio</property>
    <property name="meta.attr.0.stream.vendor_id.markup">[0][0][0][0]</property>
    <property name="meta.media.1.stream.type">video</property>
    <property name="meta.media.1.stream.frame_rate">30</property>
    <property name="meta.media.1.stream.sample_aspect_ratio">0</property>
    <property name="meta.media.1.codec.width">1280</property>
    <property name="meta.media.1.codec.height">720</property>
    <property name="meta.media.1.codec.rotate">90</property>
    <property name="meta.media.1.codec.pix_fmt">yuv420p</property>
    <property name="meta.media.1.codec.sample_aspect_ratio">0</property>
    <property name="meta.media.1.codec.colorspace">709</property>
    <property name="meta.media.1.codec.color_trc">1</property>
    <property name="meta.media.1.codec.name">h264</property>
    <property name="meta.media.1.codec.long_name">H.264 / AVC / MPEG-4 AVC / MPEG-4 part 10</property>
    <property name="meta.media.1.codec.bit_rate">2697116</property>
    <property name="meta.attr.1.stream.creation_time.markup">2024-06-11T15:59:17.000000Z</property>
    <property name="meta.attr.1.stream.handler_name.markup">Core Media Video</property>
    <property name="meta.attr.1.stream.vendor_id.markup">[0][0][0][0]</property>
    <property name="meta.attr.major_brand.markup">mp42</property>
    <property name="meta.attr.minor_version.markup">1</property>
    <property name="meta.attr.compatible_brands.markup">isommp41mp42</property>
    <property name="meta.attr.creation_time.markup">2024-06-11T15:59:17.000000Z</property>
    <property name="seekable">1</property>
    <property name="meta.media.sample_aspect_num">1</property>
    <property name="meta.media.sample_aspect_den">1</property>
    <property name="audio_index">-1</property>
    <property name="video_index">1</property>
    <property name="creation_time">2024-06-11T15:59:17</property>
    <property name="vstream">0</property>
    <property name="meta.media.frame_rate_num">30</property>
    <property name="meta.media.frame_rate_den">1</property>
    <property name="meta.media.colorspace">709</property>
    <property name="meta.media.color_trc">1</property>
    <property name="meta.media.has_b_frames">1</property>
    <property name="meta.media.width">720</property>
    <property name="meta.media.height">1280</property>
    <property name="meta.media.color_range">mpeg</property>
    <property name="astream">-1</property>
    <property name="shotcut:skipConvert">1</property>
    <property name="xml">was here</property>
    <property name="shotcut:hash">30d9fadde49d66815c2a181b609d92c0</property>
    <property name="meta.media.top_field_first">0</property>
    <property name="meta.media.progressive">1</property>
    <property name="ignore_points">0</property>
    <property name="shotcut:caption">IMG_3464.MOV</property>
    <property name="shotcut:defaultAudioIndex">0</property>
  </chain>
  <chain id="chain11" out="00:00:04.100">
    <property name="length">00:00:04.133</property>
    <property name="eof">pause</property>
    <property name="resource">C:/Users/Korisnik/Downloads/IMG_3466.MOV</property>
    <property name="mlt_service">avformat-novalidate</property>
    <property name="meta.media.nb_streams">2</property>
    <property name="meta.media.0.stream.type">audio</property>
    <property name="meta.media.0.codec.sample_fmt">fltp</property>
    <property name="meta.media.0.codec.sample_rate">44100</property>
    <property name="meta.media.0.codec.channels">2</property>
    <property name="meta.media.0.codec.layout">stereo</property>
    <property name="meta.media.0.codec.name">aac</property>
    <property name="meta.media.0.codec.long_name">AAC (Advanced Audio Coding)</property>
    <property name="meta.media.0.codec.bit_rate">196746</property>
    <property name="meta.attr.0.stream.creation_time.markup">2024-06-11T15:59:20.000000Z</property>
    <property name="meta.attr.0.stream.handler_name.markup">Core Media Audio</property>
    <property name="meta.attr.0.stream.vendor_id.markup">[0][0][0][0]</property>
    <property name="meta.media.1.stream.type">video</property>
    <property name="meta.media.1.stream.frame_rate">30.0121</property>
    <property name="meta.media.1.stream.sample_aspect_ratio">0</property>
    <property name="meta.media.1.codec.width">1280</property>
    <property name="meta.media.1.codec.height">720</property>
    <property name="meta.media.1.codec.rotate">90</property>
    <property name="meta.media.1.codec.pix_fmt">yuv420p</property>
    <property name="meta.media.1.codec.sample_aspect_ratio">0</property>
    <property name="meta.media.1.codec.colorspace">709</property>
    <property name="meta.media.1.codec.color_trc">1</property>
    <property name="meta.media.1.codec.name">h264</property>
    <property name="meta.media.1.codec.long_name">H.264 / AVC / MPEG-4 AVC / MPEG-4 part 10</property>
    <property name="meta.media.1.codec.bit_rate">2609587</property>
    <property name="meta.attr.1.stream.creation_time.markup">2024-06-11T15:59:20.000000Z</property>
    <property name="meta.attr.1.stream.handler_name.markup">Core Media Video</property>
    <property name="meta.attr.1.stream.vendor_id.markup">[0][0][0][0]</property>
    <property name="meta.attr.major_brand.markup">mp42</property>
    <property name="meta.attr.minor_version.markup">1</property>
    <property name="meta.attr.compatible_brands.markup">isommp41mp42</property>
    <property name="meta.attr.creation_time.markup">2024-06-11T15:59:20.000000Z</property>
    <property name="seekable">1</property>
    <property name="meta.media.sample_aspect_num">1</property>
    <property name="meta.media.sample_aspect_den">1</property>
    <property name="audio_index">-1</property>
    <property name="video_index">1</property>
    <property name="creation_time">2024-06-11T15:59:20</property>
    <property name="vstream">0</property>
    <property name="meta.media.frame_rate_num">74400</property>
    <property name="meta.media.frame_rate_den">2479</property>
    <property name="meta.media.colorspace">709</property>
    <property name="meta.media.color_trc">1</property>
    <property name="meta.media.has_b_frames">1</property>
    <property name="meta.media.width">720</property>
    <property name="meta.media.height">1280</property>
    <property name="meta.media.color_range">mpeg</property>
    <property name="astream">-1</property>
    <property name="shotcut:skipConvert">1</property>
    <property name="xml">was here</property>
    <property name="shotcut:hash">e61326b9e0fd0d3e0d46d873f36dc5f3</property>
    <property name="meta.media.top_field_first">0</property>
    <property name="meta.media.progressive">1</property>
    <property name="ignore_points">0</property>
    <property name="shotcut:caption">IMG_3466.MOV</property>
    <property name="shotcut:defaultAudioIndex">0</property>
    <property name="meta.shotcut.vui">1</property>
  </chain>
  <chain id="chain12" out="00:00:07.633">
    <property name="length">00:00:07.667</property>
    <property name="eof">pause</property>
    <property name="resource">C:/Users/Korisnik/Downloads/IMG_3467.MOV</property>
    <property name="mlt_service">avformat-novalidate</property>
    <property name="meta.media.nb_streams">2</property>
    <property name="meta.media.0.stream.type">audio</property>
    <property name="meta.media.0.codec.sample_fmt">fltp</property>
    <property name="meta.media.0.codec.sample_rate">44100</property>
    <property name="meta.media.0.codec.channels">2</property>
    <property name="meta.media.0.codec.layout">stereo</property>
    <property name="meta.media.0.codec.name">aac</property>
    <property name="meta.media.0.codec.long_name">AAC (Advanced Audio Coding)</property>
    <property name="meta.media.0.codec.bit_rate">200220</property>
    <property name="meta.attr.0.stream.creation_time.markup">2024-06-11T15:59:26.000000Z</property>
    <property name="meta.attr.0.stream.handler_name.markup">Core Media Audio</property>
    <property name="meta.attr.0.stream.vendor_id.markup">[0][0][0][0]</property>
    <property name="meta.media.1.stream.type">video</property>
    <property name="meta.media.1.stream.frame_rate">30</property>
    <property name="meta.media.1.stream.sample_aspect_ratio">0</property>
    <property name="meta.media.1.codec.width">1280</property>
    <property name="meta.media.1.codec.height">720</property>
    <property name="meta.media.1.codec.rotate">90</property>
    <property name="meta.media.1.codec.pix_fmt">yuv420p</property>
    <property name="meta.media.1.codec.sample_aspect_ratio">0</property>
    <property name="meta.media.1.codec.colorspace">709</property>
    <property name="meta.media.1.codec.color_trc">1</property>
    <property name="meta.media.1.codec.name">h264</property>
    <property name="meta.media.1.codec.long_name">H.264 / AVC / MPEG-4 AVC / MPEG-4 part 10</property>
    <property name="meta.media.1.codec.bit_rate">2514441</property>
    <property name="meta.attr.1.stream.creation_time.markup">2024-06-11T15:59:26.000000Z</property>
    <property name="meta.attr.1.stream.handler_name.markup">Core Media Video</property>
    <property name="meta.attr.1.stream.vendor_id.markup">[0][0][0][0]</property>
    <property name="meta.attr.major_brand.markup">mp42</property>
    <property name="meta.attr.minor_version.markup">1</property>
    <property name="meta.attr.compatible_brands.markup">isommp41mp42</property>
    <property name="meta.attr.creation_time.markup">2024-06-11T15:59:26.000000Z</property>
    <property name="seekable">1</property>
    <property name="meta.media.sample_aspect_num">1</property>
    <property name="meta.media.sample_aspect_den">1</property>
    <property name="audio_index">-1</property>
    <property name="video_index">1</property>
    <property name="creation_time">2024-06-11T15:59:26</property>
    <property name="vstream">0</property>
    <property name="meta.media.frame_rate_num">30</property>
    <property name="meta.media.frame_rate_den">1</property>
    <property name="meta.media.colorspace">709</property>
    <property name="meta.media.color_trc">1</property>
    <property name="meta.media.has_b_frames">1</property>
    <property name="meta.media.width">720</property>
    <property name="meta.media.height">1280</property>
    <property name="meta.media.color_range">mpeg</property>
    <property name="astream">-1</property>
    <property name="shotcut:skipConvert">1</property>
    <property name="xml">was here</property>
    <property name="shotcut:hash">77f4e536fec0629e56b904c879944237</property>
    <property name="meta.media.top_field_first">0</property>
    <property name="meta.media.progressive">1</property>
    <property name="ignore_points">0</property>
    <property name="shotcut:caption">IMG_3467.MOV</property>
    <property name="shotcut:defaultAudioIndex">0</property>
  </chain>
  <chain id="chain13" out="00:00:05.300">
    <property name="length">00:00:05.333</property>
    <property name="eof">pause</property>
    <property name="resource">C:/Users/Korisnik/Downloads/IMG_3469.MOV</property>
    <property name="mlt_service">avformat-novalidate</property>
    <property name="meta.media.nb_streams">2</property>
    <property name="meta.media.0.stream.type">audio</property>
    <property name="meta.media.0.codec.sample_fmt">fltp</property>
    <property name="meta.media.0.codec.sample_rate">44100</property>
    <property name="meta.media.0.codec.channels">2</property>
    <property name="meta.media.0.codec.layout">stereo</property>
    <property name="meta.media.0.codec.name">aac</property>
    <property name="meta.media.0.codec.long_name">AAC (Advanced Audio Coding)</property>
    <property name="meta.media.0.codec.bit_rate">202550</property>
    <property name="meta.attr.0.stream.creation_time.markup">2024-06-11T15:59:38.000000Z</property>
    <property name="meta.attr.0.stream.handler_name.markup">Core Media Audio</property>
    <property name="meta.attr.0.stream.vendor_id.markup">[0][0][0][0]</property>
    <property name="meta.media.1.stream.type">video</property>
    <property name="meta.media.1.stream.frame_rate">30</property>
    <property name="meta.media.1.stream.sample_aspect_ratio">0</property>
    <property name="meta.media.1.codec.width">1280</property>
    <property name="meta.media.1.codec.height">720</property>
    <property name="meta.media.1.codec.rotate">90</property>
    <property name="meta.media.1.codec.pix_fmt">yuv420p</property>
    <property name="meta.media.1.codec.sample_aspect_ratio">0</property>
    <property name="meta.media.1.codec.colorspace">709</property>
    <property name="meta.media.1.codec.color_trc">1</property>
    <property name="meta.media.1.codec.name">h264</property>
    <property name="meta.media.1.codec.long_name">H.264 / AVC / MPEG-4 AVC / MPEG-4 part 10</property>
    <property name="meta.media.1.codec.bit_rate">2552349</property>
    <property name="meta.attr.1.stream.creation_time.markup">2024-06-11T15:59:38.000000Z</property>
    <property name="meta.attr.1.stream.handler_name.markup">Core Media Video</property>
    <property name="meta.attr.1.stream.vendor_id.markup">[0][0][0][0]</property>
    <property name="meta.attr.major_brand.markup">mp42</property>
    <property name="meta.attr.minor_version.markup">1</property>
    <property name="meta.attr.compatible_brands.markup">isommp41mp42</property>
    <property name="meta.attr.creation_time.markup">2024-06-11T15:59:38.000000Z</property>
    <property name="seekable">1</property>
    <property name="meta.media.sample_aspect_num">1</property>
    <property name="meta.media.sample_aspect_den">1</property>
    <property name="audio_index">-1</property>
    <property name="video_index">1</property>
    <property name="creation_time">2024-06-11T15:59:38</property>
    <property name="vstream">0</property>
    <property name="meta.media.frame_rate_num">30</property>
    <property name="meta.media.frame_rate_den">1</property>
    <property name="meta.media.colorspace">709</property>
    <property name="meta.media.color_trc">1</property>
    <property name="meta.media.has_b_frames">1</property>
    <property name="meta.media.width">720</property>
    <property name="meta.media.height">1280</property>
    <property name="meta.media.color_range">mpeg</property>
    <property name="astream">-1</property>
    <property name="shotcut:skipConvert">1</property>
    <property name="xml">was here</property>
    <property name="shotcut:hash">435ae51d33a227a6f0e03c226ade19fc</property>
    <property name="meta.media.top_field_first">0</property>
    <property name="meta.media.progressive">1</property>
    <property name="ignore_points">0</property>
    <property name="shotcut:caption">IMG_3469.MOV</property>
    <property name="shotcut:defaultAudioIndex">0</property>
    <property name="meta.shotcut.vui">1</property>
    <filter id="filter0" in="00:00:03.733" out="00:00:05.300">
      <property name="background">color:#00000000</property>
      <property name="mlt_service">affine</property>
      <property name="shotcut:filter">affineSizePosition</property>
      <property name="transition.fix_rotate_x">00:00:00.467=0;00:00:01.567=360</property>
      <property name="transition.fill">1</property>
      <property name="transition.distort">0</property>
      <property name="transition.rect">00:00:00.833=0 0 720 1280 1;00:00:00.900=0 0 720 1280 1;00:00:01.567=0 0 720 1280 1</property>
      <property name="transition.valign">middle</property>
      <property name="transition.halign">center</property>
      <property name="shotcut:animIn">00:00:00.000</property>
      <property name="shotcut:animOut">00:00:00.000</property>
      <property name="transition.threads">0</property>
    </filter>
  </chain>
  <chain id="chain14" out="00:00:03.267">
    <property name="length">00:00:03.300</property>
    <property name="eof">pause</property>
    <property name="resource">C:/Users/Korisnik/Downloads/IMG_3471.MOV</property>
    <property name="mlt_service">avformat-novalidate</property>
    <property name="meta.media.nb_streams">2</property>
    <property name="meta.media.0.stream.type">audio</property>
    <property name="meta.media.0.codec.sample_fmt">fltp</property>
    <property name="meta.media.0.codec.sample_rate">44100</property>
    <property name="meta.media.0.codec.channels">2</property>
    <property name="meta.media.0.codec.layout">stereo</property>
    <property name="meta.media.0.codec.name">aac</property>
    <property name="meta.media.0.codec.long_name">AAC (Advanced Audio Coding)</property>
    <property name="meta.media.0.codec.bit_rate">181895</property>
    <property name="meta.attr.0.stream.creation_time.markup">2024-06-11T15:59:42.000000Z</property>
    <property name="meta.attr.0.stream.handler_name.markup">Core Media Audio</property>
    <property name="meta.attr.0.stream.vendor_id.markup">[0][0][0][0]</property>
    <property name="meta.media.1.stream.type">video</property>
    <property name="meta.media.1.stream.frame_rate">30</property>
    <property name="meta.media.1.stream.sample_aspect_ratio">0</property>
    <property name="meta.media.1.codec.width">1280</property>
    <property name="meta.media.1.codec.height">720</property>
    <property name="meta.media.1.codec.rotate">90</property>
    <property name="meta.media.1.codec.pix_fmt">yuv420p</property>
    <property name="meta.media.1.codec.sample_aspect_ratio">0</property>
    <property name="meta.media.1.codec.colorspace">709</property>
    <property name="meta.media.1.codec.color_trc">1</property>
    <property name="meta.media.1.codec.name">h264</property>
    <property name="meta.media.1.codec.long_name">H.264 / AVC / MPEG-4 AVC / MPEG-4 part 10</property>
    <property name="meta.media.1.codec.bit_rate">2503684</property>
    <property name="meta.attr.1.stream.creation_time.markup">2024-06-11T15:59:42.000000Z</property>
    <property name="meta.attr.1.stream.handler_name.markup">Core Media Video</property>
    <property name="meta.attr.1.stream.vendor_id.markup">[0][0][0][0]</property>
    <property name="meta.attr.major_brand.markup">mp42</property>
    <property name="meta.attr.minor_version.markup">1</property>
    <property name="meta.attr.compatible_brands.markup">isommp41mp42</property>
    <property name="meta.attr.creation_time.markup">2024-06-11T15:59:42.000000Z</property>
    <property name="seekable">1</property>
    <property name="meta.media.sample_aspect_num">1</property>
    <property name="meta.media.sample_aspect_den">1</property>
    <property name="audio_index">-1</property>
    <property name="video_index">1</property>
    <property name="creation_time">2024-06-11T15:59:42</property>
    <property name="vstream">0</property>
    <property name="meta.media.frame_rate_num">30</property>
    <property name="meta.media.frame_rate_den">1</property>
    <property name="meta.media.colorspace">709</property>
    <property name="meta.media.color_trc">1</property>
    <property name="meta.media.has_b_frames">1</property>
    <property name="meta.media.width">720</property>
    <property name="meta.media.height">1280</property>
    <property name="meta.media.color_range">mpeg</property>
    <property name="astream">-1</property>
    <property name="shotcut:skipConvert">1</property>
    <property name="xml">was here</property>
    <property name="shotcut:hash">63b306b4895e30b1d0047ed0f98e96b1</property>
    <property name="meta.media.top_field_first">0</property>
    <property name="meta.media.progressive">1</property>
    <property name="ignore_points">0</property>
    <property name="shotcut:caption">IMG_3471.MOV</property>
    <property name="shotcut:defaultAudioIndex">0</property>
    <filter id="filter2" out="00:00:00.867">
      <property name="mlt_service">avfilter.hue</property>
      <property name="av.h">0</property>
      <property name="av.b">0</property>
      <property name="av.s">1.53</property>
    </filter>
  </chain>
  <producer id="producer0" in="00:00:00.000" out="00:00:08.233">
    <property name="length">00:00:08.267</property>
    <property name="eof">pause</property>
    <property name="resource">0.4:C:/Users/Korisnik/Downloads/IMG_3471.MOV</property>
    <property name="aspect_ratio">1</property>
    <property name="meta.media.nb_streams">2</property>
    <property name="meta.media.0.stream.type">audio</property>
    <property name="meta.media.0.codec.sample_fmt">fltp</property>
    <property name="meta.media.0.codec.sample_rate">44100</property>
    <property name="meta.media.0.codec.channels">2</property>
    <property name="meta.media.0.codec.layout">stereo</property>
    <property name="meta.media.0.codec.name">aac</property>
    <property name="meta.media.0.codec.long_name">AAC (Advanced Audio Coding)</property>
    <property name="meta.media.0.codec.bit_rate">181895</property>
    <property name="meta.attr.0.stream.creation_time.markup">2024-06-11T15:59:42.000000Z</property>
    <property name="meta.attr.0.stream.handler_name.markup">Core Media Audio</property>
    <property name="meta.attr.0.stream.vendor_id.markup">[0][0][0][0]</property>
    <property name="meta.media.1.stream.type">video</property>
    <property name="meta.media.1.stream.frame_rate">30</property>
    <property name="meta.media.1.stream.sample_aspect_ratio">0</property>
    <property name="meta.media.1.codec.width">1280</property>
    <property name="meta.media.1.codec.height">720</property>
    <property name="meta.media.1.codec.rotate">90</property>
    <property name="meta.media.1.codec.pix_fmt">yuv420p</property>
    <property name="meta.media.1.codec.sample_aspect_ratio">0</property>
    <property name="meta.media.1.codec.colorspace">709</property>
    <property name="meta.media.1.codec.color_trc">1</property>
    <property name="meta.media.1.codec.name">h264</property>
    <property name="meta.media.1.codec.long_name">H.264 / AVC / MPEG-4 AVC / MPEG-4 part 10</property>
    <property name="meta.media.1.codec.bit_rate">2503684</property>
    <property name="meta.attr.1.stream.creation_time.markup">2024-06-11T15:59:42.000000Z</property>
    <property name="meta.attr.1.stream.handler_name.markup">Core Media Video</property>
    <property name="meta.attr.1.stream.vendor_id.markup">[0][0][0][0]</property>
    <property name="meta.attr.major_brand.markup">mp42</property>
    <property name="meta.attr.minor_version.markup">1</property>
    <property name="meta.attr.compatible_brands.markup">isommp41mp42</property>
    <property name="meta.attr.creation_time.markup">2024-06-11T15:59:42.000000Z</property>
    <property name="seekable">1</property>
    <property name="meta.media.sample_aspect_num">1</property>
    <property name="meta.media.sample_aspect_den">1</property>
    <property name="audio_index">-1</property>
    <property name="video_index">1</property>
    <property name="warp_speed">0.4</property>
    <property name="warp_resource">C:/Users/Korisnik/Downloads/IMG_3471.MOV</property>
    <property name="mlt_service">timewarp</property>
    <property name="shotcut:producer">avformat</property>
    <property name="video_delay">0</property>
    <property name="astream">-1</property>
    <property name="vstream">0</property>
    <property name="shotcut:hash">63b306b4895e30b1d0047ed0f98e96b1</property>
    <property name="shotcut:skipConvert">1</property>
    <property name="shotcut:defaultAudioIndex">0</property>
    <property name="shotcut:caption">IMG_3471.MOV (0.4x)</property>
    <property name="xml">was here</property>
    <property name="meta.media.frame_rate_num">30</property>
    <property name="meta.media.frame_rate_den">1</property>
    <property name="meta.media.colorspace">709</property>
    <property name="meta.media.color_trc">1</property>
    <property name="meta.media.has_b_frames">1</property>
    <property name="meta.media.width">720</property>
    <property name="meta.media.height">1280</property>
    <property name="meta.media.color_range">mpeg</property>
    <property name="meta.media.top_field_first">0</property>
    <property name="meta.media.progressive">1</property>
    <filter id="filter3" in="00:00:02.267" out="00:00:04.267">
      <property name="mlt_service">avfilter.hue</property>
      <property name="av.h">0</property>
      <property name="av.b">0</property>
      <property name="av.s">1.53</property>
    </filter>
  </producer>
  <chain id="chain15" out="00:00:03.267">
    <property name="length">00:00:03.300</property>
    <property name="eof">pause</property>
    <property name="resource">C:/Users/Korisnik/Downloads/IMG_3471.MOV</property>
    <property name="mlt_service">avformat-novalidate</property>
    <property name="meta.media.nb_streams">2</property>
    <property name="meta.media.0.stream.type">audio</property>
    <property name="meta.media.0.codec.sample_fmt">fltp</property>
    <property name="meta.media.0.codec.sample_rate">44100</property>
    <property name="meta.media.0.codec.channels">2</property>
    <property name="meta.media.0.codec.layout">stereo</property>
    <property name="meta.media.0.codec.name">aac</property>
    <property name="meta.media.0.codec.long_name">AAC (Advanced Audio Coding)</property>
    <property name="meta.media.0.codec.bit_rate">181895</property>
    <property name="meta.attr.0.stream.creation_time.markup">2024-06-11T15:59:42.000000Z</property>
    <property name="meta.attr.0.stream.handler_name.markup">Core Media Audio</property>
    <property name="meta.attr.0.stream.vendor_id.markup">[0][0][0][0]</property>
    <property name="meta.media.1.stream.type">video</property>
    <property name="meta.media.1.stream.frame_rate">30</property>
    <property name="meta.media.1.stream.sample_aspect_ratio">0</property>
    <property name="meta.media.1.codec.width">1280</property>
    <property name="meta.media.1.codec.height">720</property>
    <property name="meta.media.1.codec.rotate">90</property>
    <property name="meta.media.1.codec.pix_fmt">yuv420p</property>
    <property name="meta.media.1.codec.sample_aspect_ratio">0</property>
    <property name="meta.media.1.codec.colorspace">709</property>
    <property name="meta.media.1.codec.color_trc">1</property>
    <property name="meta.media.1.codec.name">h264</property>
    <property name="meta.media.1.codec.long_name">H.264 / AVC / MPEG-4 AVC / MPEG-4 part 10</property>
    <property name="meta.media.1.codec.bit_rate">2503684</property>
    <property name="meta.attr.1.stream.creation_time.markup">2024-06-11T15:59:42.000000Z</property>
    <property name="meta.attr.1.stream.handler_name.markup">Core Media Video</property>
    <property name="meta.attr.1.stream.vendor_id.markup">[0][0][0][0]</property>
    <property name="meta.attr.major_brand.markup">mp42</property>
    <property name="meta.attr.minor_version.markup">1</property>
    <property name="meta.attr.compatible_brands.markup">isommp41mp42</property>
    <property name="meta.attr.creation_time.markup">2024-06-11T15:59:42.000000Z</property>
    <property name="seekable">1</property>
    <property name="meta.media.sample_aspect_num">1</property>
    <property name="meta.media.sample_aspect_den">1</property>
    <property name="audio_index">-1</property>
    <property name="video_index">1</property>
    <property name="creation_time">2024-06-11T15:59:42</property>
    <property name="vstream">0</property>
    <property name="meta.media.frame_rate_num">30</property>
    <property name="meta.media.frame_rate_den">1</property>
    <property name="meta.media.colorspace">709</property>
    <property name="meta.media.color_trc">1</property>
    <property name="meta.media.has_b_frames">1</property>
    <property name="meta.media.width">720</property>
    <property name="meta.media.height">1280</property>
    <property name="meta.media.color_range">mpeg</property>
    <property name="astream">-1</property>
    <property name="shotcut:skipConvert">1</property>
    <property name="xml">was here</property>
    <property name="shotcut:hash">63b306b4895e30b1d0047ed0f98e96b1</property>
    <property name="meta.media.top_field_first">0</property>
    <property name="meta.media.progressive">1</property>
    <property name="ignore_points">0</property>
    <property name="shotcut:caption">IMG_3471.MOV</property>
    <property name="shotcut:defaultAudioIndex">0</property>
    <property name="meta.shotcut.vui">1</property>
    <filter id="filter4" in="00:00:01.867" out="00:00:03.267">
      <property name="start">1</property>
      <property name="level">00:00:00.433=1;00:00:01.400=0</property>
      <property name="mlt_service">brightness</property>
      <property name="shotcut:filter">fadeOutBrightness</property>
      <property name="alpha">1</property>
      <property name="shotcut:animOut">00:00:01.000</property>
    </filter>
    <filter id="filter5" in="00:00:01.867" out="00:00:03.267">
      <property name="mlt_service">avfilter.hue</property>
      <property name="av.h">0</property>
      <property name="av.b">0</property>
      <property name="av.s">1.53</property>
    </filter>
  </chain>
  <playlist id="playlist0">
    <property name="shotcut:video">1</property>
    <property name="shotcut:name">V1</property>
    <blank length="00:00:01.100"/>
    <entry producer="chain8" in="00:00:00.000" out="00:00:04.733"/>
    <entry producer="chain9" in="00:00:00.000" out="00:00:02.900"/>
    <entry producer="chain10" in="00:00:00.000" out="00:00:02.200"/>
    <entry producer="chain11" in="00:00:00.000" out="00:00:04.100"/>
    <entry producer="chain12" in="00:00:00.400" out="00:00:07.633"/>
    <entry producer="chain13" in="00:00:03.733" out="00:00:05.300"/>
    <entry producer="chain14" in="00:00:00.000" out="00:00:00.867"/>
    <entry producer="producer0" in="00:00:02.267" out="00:00:04.267"/>
    <entry producer="chain15" in="00:00:01.867" out="00:00:03.267"/>
  </playlist>
  <chain id="chain16" out="00:05:22.867">
    <property name="length">00:05:22.900</property>
    <property name="eof">pause</property>
    <property name="resource">zvuk.mp3</property>
    <property name="mlt_service">avformat-novalidate</property>
    <property name="meta.media.nb_streams">1</property>
    <property name="meta.media.0.stream.type">audio</property>
    <property name="meta.media.0.codec.sample_fmt">fltp</property>
    <property name="meta.media.0.codec.sample_rate">48000</property>
    <property name="meta.media.0.codec.channels">2</property>
    <property name="meta.media.0.codec.layout">stereo</property>
    <property name="meta.media.0.codec.name">mp3float</property>
    <property name="meta.media.0.codec.long_name">MP3 (MPEG audio layer 3)</property>
    <property name="meta.media.0.codec.bit_rate">192000</property>
    <property name="meta.attr.0.stream.encoder.markup">Lavc58.54</property>
    <property name="meta.attr.encoder.markup">Lavf58.29.100</property>
    <property name="seekable">1</property>
    <property name="audio_index">0</property>
    <property name="video_index">-1</property>
    <property name="creation_time">2024-06-11T20:08:26</property>
    <property name="astream">0</property>
    <property name="shotcut:skipConvert">1</property>
    <property name="xml">was here</property>
    <property name="shotcut:hash">c6b794d5aec9a637b16a94753746a1a5</property>
    <property name="ignore_points">0</property>
    <property name="shotcut:caption">zvuk.mp3</property>
    <filter id="filter6" out="00:00:28.367">
      <property name="window">75</property>
      <property name="max_gain">20dB</property>
      <property name="level">00:00:00.000=-60;00:00:00.967=0</property>
      <property name="mlt_service">volume</property>
      <property name="shotcut:filter">fadeInVolume</property>
      <property name="shotcut:animIn">00:00:01.000</property>
    </filter>
    <filter id="filter7" out="00:00:28.367">
      <property name="window">75</property>
      <property name="max_gain">20dB</property>
      <property name="level">00:00:27.400=0;00:00:28.367=-60</property>
      <property name="mlt_service">volume</property>
      <property name="shotcut:filter">fadeOutVolume</property>
      <property name="shotcut:animOut">00:00:01.000</property>
    </filter>
  </chain>
  <playlist id="playlist1">
    <property name="shotcut:audio">1</property>
    <property name="shotcut:name">A1</property>
    <entry producer="chain16" in="00:00:00.000" out="00:00:28.367"/>
  </playlist>
  <chain id="chain17" out="00:00:04.133">
    <property name="length">00:00:04.167</property>
    <property name="eof">pause</property>
    <property name="resource">C:/Users/Korisnik/Documents/GRF/digitalni multimedij/kolokvij3/kinemagraf/kinemagraf.gif</property>
    <property name="mlt_service">avformat-novalidate</property>
    <property name="meta.media.nb_streams">1</property>
    <property name="meta.media.0.stream.type">video</property>
    <property name="meta.media.0.stream.frame_rate">33.3333</property>
    <property name="meta.media.0.stream.sample_aspect_ratio">0</property>
    <property name="meta.media.0.codec.width">720</property>
    <property name="meta.media.0.codec.height">1280</property>
    <property name="meta.media.0.codec.rotate">0</property>
    <property name="meta.media.0.codec.pix_fmt">bgra</property>
    <property name="meta.media.0.codec.sample_aspect_ratio">0</property>
    <property name="meta.media.0.codec.colorspace">709</property>
    <property name="meta.media.0.codec.name">gif</property>
    <property name="meta.media.0.codec.long_name">GIF (Graphics Interchange Format)</property>
    <property name="meta.media.0.codec.bit_rate">0</property>
    <property name="seekable">1</property>
    <property name="meta.media.sample_aspect_num">1</property>
    <property name="meta.media.sample_aspect_den">1</property>
    <property name="audio_index">-1</property>
    <property name="video_index">0</property>
    <property name="creation_time">2024-06-11T17:26:15</property>
    <property name="vstream">0</property>
    <property name="meta.media.frame_rate_num">100</property>
    <property name="meta.media.frame_rate_den">3</property>
    <property name="meta.media.colorspace">709</property>
    <property name="meta.media.color_trc">2</property>
    <property name="meta.media.has_b_frames">0</property>
    <property name="meta.media.width">720</property>
    <property name="meta.media.height">1280</property>
    <property name="meta.media.aspect_ratio">1</property>
    <property name="meta.media.color_range">mpeg</property>
    <property name="shotcut:skipConvert">0</property>
    <property name="meta.media.top_field_first">0</property>
    <property name="meta.media.progressive">1</property>
    <property name="shotcut:hash">dd382bc537568b099889ce50862c2b73</property>
    <property name="ignore_points">0</property>
    <property name="shotcut:caption">kinemagraf.gif</property>
    <property name="xml">was here</property>
    <property name="meta.shotcut.vui">1</property>
    <filter id="filter8" out="00:00:01.800">
      <property name="start">1</property>
      <property name="level">1</property>
      <property name="mlt_service">brightness</property>
      <property name="shotcut:filter">brightnessOpacity</property>
      <property name="alpha">00:00:01.133=1;00:00:01.733=0</property>
      <property name="opacity">00:00:01.133=1;00:00:01.733=0</property>
    </filter>
    <filter id="filter9" out="00:00:01.800">
      <property name="start">1</property>
      <property name="level">00:00:00.000=0;00:00:00.967=1</property>
      <property name="mlt_service">brightness</property>
      <property name="shotcut:filter">fadeInBrightness</property>
      <property name="alpha">1</property>
      <property name="shotcut:animIn">00:00:01.000</property>
    </filter>
  </chain>
  <producer id="producer1" in="00:00:00.000" out="03:59:59.967">
    <property name="length">04:00:00.000</property>
    <property name="eof">pause</property>
    <property name="resource">#00000000</property>
    <property name="aspect_ratio">1</property>
    <property name="mlt_service">color</property>
    <property name="mlt_image_format">rgba</property>
    <property name="shotcut:caption">transparent</property>
    <property name="shotcut:detail">transparent</property>
    <property name="xml">was here</property>
    <property name="seekable">1</property>
    <property name="meta.shotcut.vui">1</property>
    <filter id="filter10" out="00:00:01.400">
      <property name="argument">text</property>
      <property name="geometry">-4 116 720 202 1</property>
      <property name="family">Verdana</property>
      <property name="size">80</property>
      <property name="weight">7000</property>
      <property name="style">normal</property>
      <property name="fgcolour">#ffffffff</property>
      <property name="bgcolour">#00000000</property>
      <property name="olcolour">#aa000000</property>
      <property name="pad">0</property>
      <property name="halign">center</property>
      <property name="valign">top</property>
      <property name="outline">3</property>
      <property name="pixel_ratio">1</property>
      <property name="opacity">1</property>
      <property name="mlt_service">qtext</property>
      <property name="shotcut:filter">richText</property>
      <property name="html">&lt;!DOCTYPE HTML PUBLIC &quot;-//W3C//DTD HTML 4.0//EN&quot; &quot;http://www.w3.org/TR/REC-html40/strict.dtd&quot;&gt;
&lt;html&gt;&lt;head&gt;&lt;meta name=&quot;qrichtext&quot; content=&quot;1&quot; /&gt;&lt;meta charset=&quot;utf-8&quot; /&gt;&lt;style type=&quot;text/css&quot;&gt;
p, li { white-space: pre-wrap; }
hr { height: 1px; border-width: 0; }
li.unchecked::marker { content: &quot;\2610&quot;; }
li.checked::marker { content: &quot;\2612&quot;; }
&lt;/style&gt;&lt;/head&gt;&lt;body style=&quot; font-family:'Segoe UI'; font-size:9pt; font-weight:400; font-style:normal;&quot;&gt;
&lt;p align=&quot;center&quot; style=&quot; margin-top:0px; margin-bottom:0px; margin-left:0px; margin-right:0px; -qt-block-indent:0; text-indent:0px;&quot;&gt;&lt;span style=&quot; font-family:'Arial Black'; font-size:72pt; font-weight:700; color:#d0ff35;&quot;&gt;Cedevita&lt;/span&gt;&lt;/p&gt;&lt;/body&gt;&lt;/html&gt;</property>
      <property name="shotcut:usePointSize">1</property>
      <property name="shotcut:pointSize">60</property>
    </filter>
    <filter id="filter11" out="00:00:01.400">
      <property name="background">color:#00000000</property>
      <property name="mlt_service">affine</property>
      <property name="shotcut:filter">affineSizePosition</property>
      <property name="transition.fix_rotate_x">00:00:00.000=0;00:00:00.967=0</property>
      <property name="transition.fill">0</property>
      <property name="transition.distort">0</property>
      <property name="transition.rect">00:00:00.000=0 1280 720 1280 1;00:00:00.967=0 0 720 1280 1</property>
      <property name="transition.valign">middle</property>
      <property name="transition.halign">center</property>
      <property name="shotcut:animIn">00:00:01.000</property>
      <property name="shotcut:animOut">00:00:00.000</property>
      <property name="transition.threads">0</property>
    </filter>
  </producer>
  <playlist id="playlist2">
    <property name="shotcut:video">1</property>
    <property name="shotcut:name">V2</property>
    <entry producer="chain17" in="00:00:00.000" out="00:00:01.800"/>
    <blank length="00:00:25.133"/>
    <entry producer="producer1" in="00:00:00.000" out="00:00:01.400"/>
  </playlist>
  <producer id="producer2" in="00:00:00.000" out="03:59:59.967">
    <property name="length">04:00:00.000</property>
    <property name="eof">pause</property>
    <property name="resource">#00000000</property>
    <property name="aspect_ratio">1</property>
    <property name="mlt_service">color</property>
    <property name="mlt_image_format">rgba</property>
    <property name="shotcut:caption">transparent</property>
    <property name="shotcut:detail">transparent</property>
    <property name="xml">was here</property>
    <property name="seekable">1</property>
    <property name="meta.shotcut.vui">1</property>
    <filter id="filter12" out="00:00:26.933">
      <property name="argument">text</property>
      <property name="geometry">-47 35 720 116 1</property>
      <property name="family">Verdana</property>
      <property name="size">80</property>
      <property name="weight">7000</property>
      <property name="style">normal</property>
      <property name="fgcolour">#ffffffff</property>
      <property name="bgcolour">#00000000</property>
      <property name="olcolour">#aa000000</property>
      <property name="pad">0</property>
      <property name="halign">center</property>
      <property name="valign">top</property>
      <property name="outline">3</property>
      <property name="pixel_ratio">1</property>
      <property name="opacity">1</property>
      <property name="mlt_service">qtext</property>
      <property name="shotcut:filter">richText</property>
      <property name="html">&lt;!DOCTYPE HTML PUBLIC &quot;-//W3C//DTD HTML 4.0//EN&quot; &quot;http://www.w3.org/TR/REC-html40/strict.dtd&quot;&gt;
&lt;html&gt;&lt;head&gt;&lt;meta name=&quot;qrichtext&quot; content=&quot;1&quot; /&gt;&lt;meta charset=&quot;utf-8&quot; /&gt;&lt;style type=&quot;text/css&quot;&gt;
p, li { white-space: pre-wrap; }
hr { height: 1px; border-width: 0; }
li.unchecked::marker { content: &quot;\2610&quot;; }
li.checked::marker { content: &quot;\2612&quot;; }
&lt;/style&gt;&lt;/head&gt;&lt;body style=&quot; font-family:'Segoe UI'; font-size:9pt; font-weight:400; font-style:normal;&quot;&gt;
&lt;p align=&quot;center&quot; style=&quot; margin-top:0px; margin-bottom:0px; margin-left:0px; margin-right:0px; -qt-block-indent:0; text-indent:0px;&quot;&gt;&lt;span style=&quot; font-family:'sans-serif'; font-size:31pt; font-weight:600; color:#000000;&quot;&gt;Ena Vrkić- Digitalni Multimedij 1&lt;/span&gt;&lt;/p&gt;&lt;/body&gt;&lt;/html&gt;</property>
      <property name="shotcut:usePointSize">1</property>
      <property name="shotcut:pointSize">60</property>
    </filter>
  </producer>
  <playlist id="playlist3">
    <property name="shotcut:video">1</property>
    <property name="shotcut:name">tekst</property>
    <entry producer="producer2" in="00:00:00.000" out="00:00:26.933"/>
  </playlist>
  <tractor id="tractor0" title="Shotcut version 24.04.28" in="00:00:00.000" out="00:00:28.367">
    <property name="shotcut">1</property>
    <property name="shotcut:scaleFactor">1.61161</property>
    <property name="shotcut:projectAudioChannels">2</property>
    <property name="shotcut:projectFolder">0</property>
    <property name="shotcut:skipConvert">0</property>
    <track producer="background"/>
    <track producer="playlist0"/>
    <track producer="playlist1" hide="video"/>
    <track producer="playlist2"/>
    <track producer="playlist3"/>
    <transition id="transition0">
      <property name="a_track">0</property>
      <property name="b_track">1</property>
      <property name="mlt_service">mix</property>
      <property name="always_active">1</property>
      <property name="sum">1</property>
    </transition>
    <transition id="transition1">
      <property name="a_track">0</property>
      <property name="b_track">1</property>
      <property name="version">0.1</property>
      <property name="mlt_service">frei0r.cairoblend</property>
      <property name="threads">0</property>
      <property name="disable">1</property>
    </transition>
    <transition id="transition2">
      <property name="a_track">0</property>
      <property name="b_track">2</property>
      <property name="mlt_service">mix</property>
      <property name="always_active">1</property>
      <property name="sum">1</property>
    </transition>
    <transition id="transition3">
      <property name="a_track">0</property>
      <property name="b_track">3</property>
      <property name="mlt_service">mix</property>
      <property name="always_active">1</property>
      <property name="sum">1</property>
    </transition>
    <transition id="transition4">
      <property name="a_track">1</property>
      <property name="b_track">3</property>
      <property name="version">0.1</property>
      <property name="mlt_service">frei0r.cairoblend</property>
      <property name="threads">0</property>
      <property name="disable">0</property>
    </transition>
    <transition id="transition5">
      <property name="a_track">0</property>
      <property name="b_track">4</property>
      <property name="mlt_service">mix</property>
      <property name="always_active">1</property>
      <property name="sum">1</property>
    </transition>
    <transition id="transition6">
      <property name="a_track">1</property>
      <property name="b_track">4</property>
      <property name="version">0.1</property>
      <property name="mlt_service">frei0r.cairoblend</property>
      <property name="threads">0</property>
      <property name="disable">0</property>
    </transition>
  </tractor>
</mlt>
